<?xml version="1.0" standalone="no"?>
<!DOCTYPE svg PUBLIC "-//W3C//DTD SVG 20010904//EN"
 "http://www.w3.org/TR/2001/REC-SVG-20010904/DTD/svg10.dtd">
<svg version="1.0" xmlns="http://www.w3.org/2000/svg"
 width="1280.000000pt" height="824.000000pt" viewBox="0 0 1280.000000 824.000000"
 preserveAspectRatio="xMidYMid meet">
<metadata>
Created by potrace 1.15, written by Peter Selinger 2001-2017
</metadata>
<g transform="translate(0.000000,824.000000) scale(0.100000,-0.100000)"
fill="#2196f3" stroke="none">
<path d="M4500 8234 c-800 -51 -1376 -164 -1985 -389 -1292 -478 -2181 -1310
-2429 -2275 -191 -747 11 -1508 575 -2165 229 -266 564 -548 892 -749 l78 -48
-27 -47 c-53 -93 -194 -298 -267 -389 -258 -321 -567 -618 -1080 -1037 -145
-119 -227 -193 -241 -218 -21 -37 -21 -38 -2 -52 28 -21 157 -19 291 4 722
125 1656 487 2652 1028 l183 99 142 -32 c290 -64 551 -105 898 -141 140 -14
266 -18 625 -18 459 0 567 6 885 45 1514 191 2784 844 3454 1778 229 318 369
644 437 1010 26 138 37 479 20 619 -87 722 -504 1380 -1211 1909 -780 584
-1794 940 -2985 1049 -158 15 -774 28 -905 19z"/>
<path d="M10106 4738 c-73 -597 -285 -1093 -678 -1586 -113 -141 -384 -417
-523 -533 -502 -420 -1091 -739 -1783 -969 -111 -37 -205 -69 -208 -72 -6 -7
198 -188 281 -248 289 -212 605 -371 968 -489 811 -263 1774 -277 2593 -38
l81 24 161 -98 c355 -217 731 -410 1032 -531 215 -87 533 -179 666 -194 63 -6
104 5 104 29 0 24 -46 75 -121 138 -226 187 -311 264 -441 398 -164 169 -258
293 -328 436 -46 94 -90 231 -90 281 0 15 26 42 93 95 50 40 144 125 207 188
427 428 601 941 495 1455 -111 535 -535 1025 -1180 1362 -367 192 -826 335
-1276 398 l-47 7 -6 -53z"/>
</g>
</svg>
